<svg xmlns="http://www.w3.org/2000/svg" xmlns:xlink="http://www.w3.org/1999/xlink" version="1.1" width="256" height="256" viewBox="0 0 256 256" xml:space="preserve">
<g style="stroke: none; stroke-width: 0; stroke-dasharray: none; stroke-linecap: butt; stroke-linejoin: miter; stroke-miterlimit: 10; fill: none; fill-rule: nonzero; opacity: 1;" transform="translate(1.4065934065934016 1.4065934065934016) scale(2.81 2.81)">
	<path d="M 45 23.916 c -2.155 0 -3.902 1.747 -3.902 3.902 v 9.255 c 0 6.671 -5.408 12.08 -12.08 12.08 h -4.067 h -5.512 C 9.255 49.153 1 57.408 1 67.592 v 8.673 c 0 2.155 1.747 3.902 3.902 3.902 h 0 c 2.155 0 3.902 -1.747 3.902 -3.902 V 69.01 c 0 -3.325 1.344 -6.335 3.518 -8.519 v 18.94 c 0 0.989 0.802 1.791 1.791 1.791 h 21.676 c 0.989 0 1.791 -0.802 1.791 -1.791 V 55.503 c 6.65 -2.785 11.322 -9.352 11.322 -17.012 V 27.818 C 48.902 25.663 47.155 23.916 45 23.916 z" style="stroke: none; stroke-width: 1; stroke-dasharray: none; stroke-linecap: butt; stroke-linejoin: miter; stroke-miterlimit: 10; fill: rgb(114,194,233); fill-rule: nonzero; opacity: 1;" transform=" matrix(1 0 0 1 0 0) " stroke-linecap="round"/>
	<path d="M 35.789 82.222 H 14.113 c -1.539 0 -2.791 -1.252 -2.791 -2.791 V 63.406 c -0.99 1.682 -1.518 3.603 -1.518 5.604 v 7.255 c 0 2.703 -2.199 4.902 -4.902 4.902 S 0 78.968 0 76.265 v -8.673 c 0 -10.719 8.72 -19.438 19.439 -19.438 h 9.579 c 6.109 0 11.08 -4.971 11.08 -11.08 v -9.255 c 0 -2.703 2.199 -4.902 4.902 -4.902 s 4.902 2.199 4.902 4.902 v 10.673 c 0 7.634 -4.422 14.496 -11.322 17.666 v 23.273 C 38.58 80.97 37.328 82.222 35.789 82.222 z M 12.322 59.491 c 0.129 0 0.258 0.024 0.382 0.075 c 0.374 0.155 0.618 0.52 0.618 0.925 v 18.939 c 0 0.437 0.355 0.791 0.791 0.791 h 21.676 c 0.436 0 0.791 -0.354 0.791 -0.791 V 55.504 c 0 -0.403 0.242 -0.767 0.614 -0.922 c 6.505 -2.726 10.708 -9.041 10.708 -16.091 V 27.818 c 0 -1.601 -1.302 -2.902 -2.902 -2.902 s -2.902 1.302 -2.902 2.902 v 9.255 c 0 7.212 -5.868 13.08 -13.08 13.08 h -9.579 C 9.823 50.153 2 57.977 2 67.592 v 8.673 c 0 1.601 1.302 2.902 2.902 2.902 s 2.902 -1.302 2.902 -2.902 V 69.01 c 0 -3.48 1.353 -6.756 3.809 -9.224 C 11.805 59.594 12.062 59.491 12.322 59.491 z" style="stroke: none; stroke-width: 1; stroke-dasharray: none; stroke-linecap: butt; stroke-linejoin: miter; stroke-miterlimit: 10; fill: rgb(0,0,0); fill-rule: nonzero; opacity: 1;" transform=" matrix(1 0 0 1 0 0) " stroke-linecap="round"/>
	<path d="M 70.561 49.153 h -5.512 h -4.067 c -6.671 0 -12.08 -5.408 -12.08 -12.08 v -9.255 c 0 -2.155 -1.747 -3.902 -3.902 -3.902 s -3.902 1.747 -3.902 3.902 v 10.673 c 0 7.66 4.673 14.227 11.322 17.012 v 23.927 c 0 0.989 0.802 1.791 1.791 1.791 h 21.676 c 0.989 0 1.791 -0.802 1.791 -1.791 v -18.94 c 2.173 2.184 3.518 5.194 3.518 8.519 v 8.255 c 0 2.155 1.747 3.902 3.902 3.902 h 0 c 2.155 0 3.902 -1.747 3.902 -3.902 v -9.673 C 89 57.408 80.745 49.153 70.561 49.153 z" style="stroke: none; stroke-width: 1; stroke-dasharray: none; stroke-linecap: butt; stroke-linejoin: miter; stroke-miterlimit: 10; fill: rgb(252,93,61); fill-rule: nonzero; opacity: 1;" transform=" matrix(1 0 0 1 0 0) " stroke-linecap="round"/>
	<path d="M 75.887 82.222 H 54.211 c -1.539 0 -2.791 -1.252 -2.791 -2.791 V 56.157 c -6.9 -3.17 -11.322 -10.032 -11.322 -17.666 V 27.818 c 0 -2.703 2.199 -4.902 4.902 -4.902 s 4.902 2.199 4.902 4.902 v 9.255 c 0 6.109 4.971 11.08 11.08 11.08 h 9.579 C 81.28 48.153 90 56.873 90 67.592 v 9.673 c 0 2.703 -2.199 4.902 -4.902 4.902 s -4.902 -2.199 -4.902 -4.902 V 69.01 c 0 -2.001 -0.527 -3.923 -1.518 -5.604 v 16.024 C 78.678 80.97 77.426 82.222 75.887 82.222 z M 45 24.916 c -1.601 0 -2.902 1.302 -2.902 2.902 v 10.673 c 0 7.05 4.203 13.365 10.709 16.091 c 0.371 0.155 0.613 0.519 0.613 0.922 v 23.927 c 0 0.437 0.354 0.791 0.791 0.791 h 21.676 c 0.437 0 0.791 -0.354 0.791 -0.791 V 60.491 c 0 -0.405 0.244 -0.77 0.618 -0.924 c 0.375 -0.157 0.805 -0.069 1.091 0.219 c 2.456 2.467 3.809 5.742 3.809 9.224 v 8.255 c 0 1.601 1.302 2.902 2.902 2.902 S 88 78.865 88 77.265 v -9.673 c 0 -9.615 -7.823 -17.438 -17.438 -17.438 h -9.579 c -7.212 0 -13.08 -5.868 -13.08 -13.08 v -9.255 C 47.902 26.218 46.601 24.916 45 24.916 z" style="stroke: none; stroke-width: 1; stroke-dasharray: none; stroke-linecap: butt; stroke-linejoin: miter; stroke-miterlimit: 10; fill: rgb(0,0,0); fill-rule: nonzero; opacity: 1;" transform=" matrix(1 0 0 1 0 0) " stroke-linecap="round"/>
	<path d="M 64.807 43.473 L 64.807 43.473 c -4.151 0 -7.516 -3.365 -7.516 -7.516 v -5.713 c 0 -4.151 3.365 -7.516 7.516 -7.516 h 0 c 4.151 0 7.516 3.365 7.516 7.516 v 5.713 C 72.323 40.108 68.958 43.473 64.807 43.473 z" style="stroke: none; stroke-width: 1; stroke-dasharray: none; stroke-linecap: butt; stroke-linejoin: miter; stroke-miterlimit: 10; fill: rgb(255,182,159); fill-rule: nonzero; opacity: 1;" transform=" matrix(1 0 0 1 0 0) " stroke-linecap="round"/>
	<path d="M 25.193 43.473 L 25.193 43.473 c -4.151 0 -7.516 -3.365 -7.516 -7.516 v -5.713 c 0 -4.151 3.365 -7.516 7.516 -7.516 h 0 c 4.151 0 7.516 3.365 7.516 7.516 v 5.713 C 32.709 40.108 29.344 43.473 25.193 43.473 z" style="stroke: none; stroke-width: 1; stroke-dasharray: none; stroke-linecap: butt; stroke-linejoin: miter; stroke-miterlimit: 10; fill: rgb(255,182,159); fill-rule: nonzero; opacity: 1;" transform=" matrix(1 0 0 1 0 0) " stroke-linecap="round"/>
	<path d="M 64.807 44.473 c -4.695 0 -8.516 -3.82 -8.516 -8.517 v -5.713 c 0 -4.696 3.82 -8.517 8.516 -8.517 c 4.696 0 8.517 3.82 8.517 8.517 v 5.713 C 73.323 40.653 69.503 44.473 64.807 44.473 z M 64.807 23.727 c -3.593 0 -6.516 2.923 -6.516 6.517 v 5.713 c 0 3.593 2.923 6.517 6.516 6.517 c 3.594 0 6.517 -2.923 6.517 -6.517 v -5.713 C 71.323 26.65 68.4 23.727 64.807 23.727 z" style="stroke: none; stroke-width: 1; stroke-dasharray: none; stroke-linecap: butt; stroke-linejoin: miter; stroke-miterlimit: 10; fill: rgb(0,0,0); fill-rule: nonzero; opacity: 1;" transform=" matrix(1 0 0 1 0 0) " stroke-linecap="round"/>
	<path d="M 25.193 44.473 c -4.696 0 -8.517 -3.82 -8.517 -8.517 v -5.713 c 0 -4.696 3.82 -8.517 8.517 -8.517 c 4.696 0 8.516 3.82 8.516 8.517 v 5.713 C 33.709 40.653 29.889 44.473 25.193 44.473 z M 25.193 23.727 c -3.593 0 -6.517 2.923 -6.517 6.517 v 5.713 c 0 3.593 2.923 6.517 6.517 6.517 c 3.593 0 6.516 -2.923 6.516 -6.517 v -5.713 C 31.709 26.65 28.786 23.727 25.193 23.727 z" style="stroke: none; stroke-width: 1; stroke-dasharray: none; stroke-linecap: butt; stroke-linejoin: miter; stroke-miterlimit: 10; fill: rgb(0,0,0); fill-rule: nonzero; opacity: 1;" transform=" matrix(1 0 0 1 0 0) " stroke-linecap="round"/>
	<path d="M 45 18.243 c -0.552 0 -1 -0.448 -1 -1 V 8.778 c 0 -0.552 0.448 -1 1 -1 s 1 0.448 1 1 v 8.464 C 46 17.795 45.552 18.243 45 18.243 z" style="stroke: none; stroke-width: 1; stroke-dasharray: none; stroke-linecap: butt; stroke-linejoin: miter; stroke-miterlimit: 10; fill: rgb(0,0,0); fill-rule: nonzero; opacity: 1;" transform=" matrix(1 0 0 1 0 0) " stroke-linecap="round"/>
	<path d="M 50.501 21.243 c -0.298 0 -0.592 -0.132 -0.789 -0.385 c -0.34 -0.435 -0.263 -1.063 0.173 -1.403 l 7 -5.464 c 0.435 -0.342 1.063 -0.263 1.403 0.173 c 0.34 0.435 0.263 1.063 -0.173 1.403 l -7 5.464 C 50.933 21.174 50.716 21.243 50.501 21.243 z" style="stroke: none; stroke-width: 1; stroke-dasharray: none; stroke-linecap: butt; stroke-linejoin: miter; stroke-miterlimit: 10; fill: rgb(0,0,0); fill-rule: nonzero; opacity: 1;" transform=" matrix(1 0 0 1 0 0) " stroke-linecap="round"/>
	<path d="M 39.5 21.243 c -0.215 0 -0.432 -0.069 -0.615 -0.212 l -7 -5.464 c -0.436 -0.34 -0.513 -0.968 -0.173 -1.403 c 0.339 -0.436 0.969 -0.514 1.403 -0.173 l 7 5.464 c 0.436 0.34 0.513 0.968 0.173 1.403 C 40.091 21.111 39.797 21.243 39.5 21.243 z" style="stroke: none; stroke-width: 1; stroke-dasharray: none; stroke-linecap: butt; stroke-linejoin: miter; stroke-miterlimit: 10; fill: rgb(0,0,0); fill-rule: nonzero; opacity: 1;" transform=" matrix(1 0 0 1 0 0) " stroke-linecap="round"/>
</g>
</svg>