<svg xmlns="http://www.w3.org/2000/svg" xmlns:xlink="http://www.w3.org/1999/xlink" version="1.1" width="256" height="256" viewBox="0 0 256 256" xml:space="preserve">
<g style="stroke: none; stroke-width: 0; stroke-dasharray: none; stroke-linecap: butt; stroke-linejoin: miter; stroke-miterlimit: 10; fill: none; fill-rule: nonzero; opacity: 1;" transform="translate(1.4065934065934016 1.4065934065934016) scale(2.81 2.81)">
	<path d="M 78.368 76.837 H 2.799 C 1.253 76.837 0 75.584 0 74.038 V 16.293 c 0 -1.546 1.253 -2.799 2.799 -2.799 h 75.569 c 1.546 0 2.799 1.253 2.799 2.799 v 57.746 C 81.166 75.584 79.913 76.837 78.368 76.837 z" style="stroke: none; stroke-width: 1; stroke-dasharray: none; stroke-linecap: butt; stroke-linejoin: miter; stroke-miterlimit: 10; fill: rgb(228,237,244); fill-rule: nonzero; opacity: 1;" transform=" matrix(1 0 0 1 0 0) " stroke-linecap="round"/>
	<path d="M 81.166 26.706 V 16.293 c 0 -1.546 -1.253 -2.799 -2.799 -2.799 H 2.799 C 1.253 13.494 0 14.747 0 16.293 v 10.414 H 81.166 z" style="stroke: none; stroke-width: 1; stroke-dasharray: none; stroke-linecap: butt; stroke-linejoin: miter; stroke-miterlimit: 10; fill: rgb(247,63,82); fill-rule: nonzero; opacity: 1;" transform=" matrix(1 0 0 1 0 0) " stroke-linecap="round"/>
	<path d="M 18.56 19.524 L 18.56 19.524 c -1.888 0 -3.419 -1.531 -3.419 -3.419 v -5.877 c 0 -1.888 1.531 -3.419 3.419 -3.419 h 0 c 1.888 0 3.419 1.531 3.419 3.419 v 5.877 C 21.979 17.993 20.448 19.524 18.56 19.524 z" style="stroke: none; stroke-width: 1; stroke-dasharray: none; stroke-linecap: butt; stroke-linejoin: miter; stroke-miterlimit: 10; fill: rgb(212,222,251); fill-rule: nonzero; opacity: 1;" transform=" matrix(1 0 0 1 0 0) " stroke-linecap="round"/>
	<path d="M 62.606 19.524 L 62.606 19.524 c -1.888 0 -3.419 -1.531 -3.419 -3.419 v -5.877 c 0 -1.888 1.531 -3.419 3.419 -3.419 h 0 c 1.888 0 3.419 1.531 3.419 3.419 v 5.877 C 66.025 17.993 64.494 19.524 62.606 19.524 z" style="stroke: none; stroke-width: 1; stroke-dasharray: none; stroke-linecap: butt; stroke-linejoin: miter; stroke-miterlimit: 10; fill: rgb(212,222,251); fill-rule: nonzero; opacity: 1;" transform=" matrix(1 0 0 1 0 0) " stroke-linecap="round"/>
	<path d="M 21.72 38.895 H 7.453 c -0.552 0 -1 -0.448 -1 -1 s 0.448 -1 1 -1 H 21.72 c 0.552 0 1 0.448 1 1 S 22.272 38.895 21.72 38.895 z" style="stroke: none; stroke-width: 1; stroke-dasharray: none; stroke-linecap: butt; stroke-linejoin: miter; stroke-miterlimit: 10; fill: rgb(74,164,238); fill-rule: nonzero; opacity: 1;" transform=" matrix(1 0 0 1 0 0) " stroke-linecap="round"/>
	<path d="M 45.816 38.895 H 30.598 c -0.552 0 -1 -0.448 -1 -1 s 0.448 -1 1 -1 h 15.218 c 0.553 0 1 0.448 1 1 S 46.369 38.895 45.816 38.895 z" style="stroke: none; stroke-width: 1; stroke-dasharray: none; stroke-linecap: butt; stroke-linejoin: miter; stroke-miterlimit: 10; fill: rgb(74,164,238); fill-rule: nonzero; opacity: 1;" transform=" matrix(1 0 0 1 0 0) " stroke-linecap="round"/>
	<path d="M 21.72 51.249 H 7.453 c -0.552 0 -1 -0.447 -1 -1 s 0.448 -1 1 -1 H 21.72 c 0.552 0 1 0.447 1 1 S 22.272 51.249 21.72 51.249 z" style="stroke: none; stroke-width: 1; stroke-dasharray: none; stroke-linecap: butt; stroke-linejoin: miter; stroke-miterlimit: 10; fill: rgb(74,164,238); fill-rule: nonzero; opacity: 1;" transform=" matrix(1 0 0 1 0 0) " stroke-linecap="round"/>
	<path d="M 37.263 51.249 h -6.665 c -0.552 0 -1 -0.447 -1 -1 s 0.448 -1 1 -1 h 6.665 c 0.552 0 1 0.447 1 1 S 37.815 51.249 37.263 51.249 z" style="stroke: none; stroke-width: 1; stroke-dasharray: none; stroke-linecap: butt; stroke-linejoin: miter; stroke-miterlimit: 10; fill: rgb(74,164,238); fill-rule: nonzero; opacity: 1;" transform=" matrix(1 0 0 1 0 0) " stroke-linecap="round"/>
	<path d="M 21.72 63.603 H 7.453 c -0.552 0 -1 -0.447 -1 -1 s 0.448 -1 1 -1 H 21.72 c 0.552 0 1 0.447 1 1 S 22.272 63.603 21.72 63.603 z" style="stroke: none; stroke-width: 1; stroke-dasharray: none; stroke-linecap: butt; stroke-linejoin: miter; stroke-miterlimit: 10; fill: rgb(74,164,238); fill-rule: nonzero; opacity: 1;" transform=" matrix(1 0 0 1 0 0) " stroke-linecap="round"/>
	<path d="M 37.263 63.603 h -6.665 c -0.552 0 -1 -0.447 -1 -1 s 0.448 -1 1 -1 h 6.665 c 0.552 0 1 0.447 1 1 S 37.815 63.603 37.263 63.603 z" style="stroke: none; stroke-width: 1; stroke-dasharray: none; stroke-linecap: butt; stroke-linejoin: miter; stroke-miterlimit: 10; fill: rgb(74,164,238); fill-rule: nonzero; opacity: 1;" transform=" matrix(1 0 0 1 0 0) " stroke-linecap="round"/>
	<circle cx="66.704" cy="59.894000000000005" r="23.294" style="stroke: none; stroke-width: 1; stroke-dasharray: none; stroke-linecap: butt; stroke-linejoin: miter; stroke-miterlimit: 10; fill: rgb(74,164,238); fill-rule: nonzero; opacity: 1;" transform="  matrix(1 0 0 1 0 0) "/>
	<circle cx="66.711" cy="59.901" r="16.631" style="stroke: none; stroke-width: 1; stroke-dasharray: none; stroke-linecap: butt; stroke-linejoin: miter; stroke-miterlimit: 10; fill: rgb(228,237,244); fill-rule: nonzero; opacity: 1;" transform="  matrix(1 0 0 1 0 0) "/>
	<path d="M 74.158 67.424 c -0.234 0 -0.469 -0.082 -0.659 -0.248 l -7.452 -6.527 c -0.217 -0.189 -0.341 -0.464 -0.341 -0.752 v -7.636 c 0 -0.553 0.447 -1 1 -1 s 1 0.447 1 1 v 7.183 l 7.111 6.229 c 0.415 0.363 0.457 0.995 0.093 1.411 C 74.713 67.309 74.436 67.424 74.158 67.424 z" style="stroke: none; stroke-width: 1; stroke-dasharray: none; stroke-linecap: butt; stroke-linejoin: miter; stroke-miterlimit: 10; fill: rgb(74,164,238); fill-rule: nonzero; opacity: 1;" transform=" matrix(1 0 0 1 0 0) " stroke-linecap="round"/>
</g>
</svg>