<svg xmlns="http://www.w3.org/2000/svg" xmlns:xlink="http://www.w3.org/1999/xlink" version="1.1" width="256" height="256" viewBox="0 0 256 256" xml:space="preserve">
<g style="stroke: none; stroke-width: 0; stroke-dasharray: none; stroke-linecap: butt; stroke-linejoin: miter; stroke-miterlimit: 10; fill: none; fill-rule: nonzero; opacity: 1;" transform="translate(1.4065934065934016 1.4065934065934016) scale(2.81 2.81)">
	<circle cx="44.995000000000005" cy="23.155" r="23.155" style="stroke: none; stroke-width: 1; stroke-dasharray: none; stroke-linecap: butt; stroke-linejoin: miter; stroke-miterlimit: 10; fill: rgb(255,198,85); fill-rule: nonzero; opacity: 1;" transform="  matrix(1 0 0 1 0 0) "/>
	<circle cx="45.003" cy="23.153" r="15.413" style="stroke: none; stroke-width: 1; stroke-dasharray: none; stroke-linecap: butt; stroke-linejoin: miter; stroke-miterlimit: 10; fill: rgb(249,218,85); fill-rule: nonzero; opacity: 1;" transform="  matrix(1 0 0 1 0 0) "/>
	<path d="M 46.493 22.059 l -2.022 -0.737 c -0.706 -0.207 -1.257 -0.718 -1.514 -1.402 c -0.217 -0.578 -0.195 -1.206 0.06 -1.769 s 0.715 -0.992 1.294 -1.209 c 0.578 -0.216 1.205 -0.195 1.769 0.06 c 0.562 0.256 0.991 0.715 1.208 1.293 c 0.299 0.798 1.188 1.204 1.986 0.903 c 0.797 -0.299 1.202 -1.188 0.903 -1.986 c -0.506 -1.35 -1.508 -2.423 -2.82 -3.019 c -0.265 -0.12 -0.539 -0.203 -0.815 -0.278 v -0.813 c 0 -0.852 -0.691 -1.543 -1.543 -1.543 s -1.543 0.691 -1.543 1.543 v 0.89 c -0.076 0.025 -0.154 0.033 -0.229 0.061 c -1.35 0.506 -2.422 1.508 -3.019 2.82 c -0.597 1.313 -0.647 2.779 -0.14 4.129 c 0.6 1.6 1.888 2.796 3.437 3.247 l 2.022 0.737 c 0.706 0.207 1.257 0.718 1.515 1.401 c 0.447 1.194 -0.16 2.53 -1.354 2.977 c -1.195 0.447 -2.531 -0.16 -2.978 -1.353 c -0.299 -0.798 -1.19 -1.202 -1.986 -0.902 c -0.797 0.299 -1.202 1.188 -0.902 1.986 c 0.631 1.683 2.021 2.856 3.635 3.3 v 0.81 c 0 0.852 0.691 1.543 1.543 1.543 s 1.543 -0.691 1.543 -1.543 v -0.888 c 0.076 -0.025 0.153 -0.035 0.229 -0.063 c 2.787 -1.045 4.204 -4.163 3.16 -6.95 C 49.331 23.706 48.042 22.511 46.493 22.059 z" style="stroke: none; stroke-width: 1; stroke-dasharray: none; stroke-linecap: butt; stroke-linejoin: miter; stroke-miterlimit: 10; fill: rgb(211,160,58); fill-rule: nonzero; opacity: 1;" transform=" matrix(1 0 0 1 0 0) " stroke-linecap="round"/>
	<path d="M 4.244 38.769 v 31.81 H 15.71 l 8.887 -28.693 C 17.696 40.294 10.882 39.098 4.244 38.769 z" style="stroke: none; stroke-width: 1; stroke-dasharray: none; stroke-linecap: butt; stroke-linejoin: miter; stroke-miterlimit: 10; fill: rgb(67,152,209); fill-rule: nonzero; opacity: 1;" transform=" matrix(1 0 0 1 0 0) " stroke-linecap="round"/>
	<path d="M 85.756 38.769 v 31.81 H 74.29 l -8.887 -28.693 C 72.304 40.294 79.118 39.098 85.756 38.769 z" style="stroke: none; stroke-width: 1; stroke-dasharray: none; stroke-linecap: butt; stroke-linejoin: miter; stroke-miterlimit: 10; fill: rgb(67,152,209); fill-rule: nonzero; opacity: 1;" transform=" matrix(1 0 0 1 0 0) " stroke-linecap="round"/>
	<path d="M 49.893 58.819 c 6.306 4.884 12.069 10.562 17.305 17.01 c 1.449 1.467 1.435 3.853 -0.032 5.302 l 0 0 c -1.467 1.449 -4.081 1.221 -5.531 -0.247 l -0.23 -0.255 c 1.449 1.467 1.435 3.853 -0.032 5.302 l 0 0 c -1.467 1.449 -3.853 1.435 -5.302 -0.032 L 53.82 83.62 c 1.449 1.467 1.435 3.853 -0.032 5.302 l 0 0 c -1.467 1.449 -3.853 1.435 -5.302 -0.032 l -0.746 -0.756 c -7.363 5.819 -19.253 -6.676 -31.094 -20.57 l 6.805 -21.969 h 11.851 L 49.893 58.819 z" style="stroke: none; stroke-width: 1; stroke-dasharray: none; stroke-linecap: butt; stroke-linejoin: miter; stroke-miterlimit: 10; fill: rgb(254,201,163); fill-rule: nonzero; opacity: 1;" transform=" matrix(1 0 0 1 0 0) " stroke-linecap="round"/>
	<path d="M 65.403 73.823 l 8.323 -5.066 l -6.965 -22.486 c -5.612 -2.567 -14.651 -4.234 -22.827 -3.919 c -7.843 0 -19.337 12.645 -15.219 16.733 c 2.83 2.243 5.945 3.653 11.585 -2.347 c 1.909 0.188 3.671 -0.09 5.194 -1.136 l 4.398 3.216 l 6.139 5.162 L 65.403 73.823 z" style="stroke: none; stroke-width: 1; stroke-dasharray: none; stroke-linecap: butt; stroke-linejoin: miter; stroke-miterlimit: 10; fill: rgb(229,170,128); fill-rule: nonzero; opacity: 1;" transform=" matrix(1 0 0 1 0 0) " stroke-linecap="round"/>
	<path d="M 46.586 87.392 c -1.342 -0.45 -2.465 -1.115 -3.522 -1.846 c -1.048 -0.739 -2.011 -1.564 -2.9 -2.461 c -0.889 -0.897 -1.701 -1.869 -2.428 -2.927 c -0.718 -1.066 -1.369 -2.198 -1.799 -3.548 c 1.345 0.447 2.469 1.112 3.525 1.843 c 1.048 0.74 2.011 1.564 2.897 2.464 c 0.886 0.9 1.699 1.872 2.425 2.929 C 45.501 84.914 46.152 86.045 46.586 87.392 z" style="stroke: none; stroke-width: 1; stroke-dasharray: none; stroke-linecap: butt; stroke-linejoin: miter; stroke-miterlimit: 10; fill: rgb(229,170,128); fill-rule: nonzero; opacity: 1;" transform=" matrix(1 0 0 1 0 0) " stroke-linecap="round"/>
	<path d="M 43.654 73.568 c 1.314 0.422 2.41 1.06 3.44 1.762 c 1.021 0.712 1.956 1.508 2.817 2.377 c 0.862 0.869 1.646 1.814 2.346 2.843 c 0.691 1.038 1.314 2.142 1.717 3.464 c -1.317 -0.419 -2.414 -1.056 -3.443 -1.759 c -1.021 -0.712 -1.956 -1.508 -2.814 -2.38 c -0.859 -0.872 -1.644 -1.816 -2.343 -2.846 C 44.684 75.991 44.06 74.887 43.654 73.568 z" style="stroke: none; stroke-width: 1; stroke-dasharray: none; stroke-linecap: butt; stroke-linejoin: miter; stroke-miterlimit: 10; fill: rgb(229,170,128); fill-rule: nonzero; opacity: 1;" transform=" matrix(1 0 0 1 0 0) " stroke-linecap="round"/>
	<path d="M 51.371 70.525 c 1.314 0.422 2.41 1.06 3.44 1.762 c 1.021 0.712 1.956 1.508 2.817 2.377 c 0.862 0.869 1.646 1.814 2.346 2.843 c 0.691 1.038 1.314 2.142 1.717 3.464 c -1.317 -0.419 -2.414 -1.056 -3.443 -1.759 c -1.021 -0.712 -1.956 -1.508 -2.814 -2.38 c -0.859 -0.872 -1.644 -1.816 -2.343 -2.846 C 52.401 72.948 51.777 71.844 51.371 70.525 z" style="stroke: none; stroke-width: 1; stroke-dasharray: none; stroke-linecap: butt; stroke-linejoin: miter; stroke-miterlimit: 10; fill: rgb(229,170,128); fill-rule: nonzero; opacity: 1;" transform=" matrix(1 0 0 1 0 0) " stroke-linecap="round"/>
</g>
</svg>