<svg xmlns="http://www.w3.org/2000/svg" xmlns:xlink="http://www.w3.org/1999/xlink" version="1.1" width="256" height="256" viewBox="0 0 256 256" xml:space="preserve">
<g style="stroke: none; stroke-width: 0; stroke-dasharray: none; stroke-linecap: butt; stroke-linejoin: miter; stroke-miterlimit: 10; fill: none; fill-rule: nonzero; opacity: 1;" transform="translate(1.4065934065934016 1.4065934065934016) scale(2.81 2.81)">
	<path d="M 78.983 7.544 H 68.522 V 5.284 c 0 -1.657 -1.343 -3 -3 -3 s -3 1.343 -3 3 v 2.261 H 27.477 V 5.284 c 0 -1.657 -1.343 -3 -3 -3 s -3 1.343 -3 3 v 2.261 H 11.016 C 4.942 7.544 0 12.486 0 18.561 v 8.871 V 76.7 c 0 6.074 4.942 11.016 11.016 11.016 h 67.967 C 85.058 87.716 90 82.774 90 76.7 V 27.431 v -8.871 C 90 12.486 85.058 7.544 78.983 7.544 z M 84 76.7 c 0 2.766 -2.25 5.016 -5.017 5.016 H 11.016 C 8.25 81.716 6 79.466 6 76.7 V 30.431 h 78 V 76.7 z" style="stroke: none; stroke-width: 1; stroke-dasharray: none; stroke-linecap: butt; stroke-linejoin: miter; stroke-miterlimit: 10; fill: rgb(0,151,214); fill-rule: nonzero; opacity: 1;" transform=" matrix(1 0 0 1 0 0) " stroke-linecap="round"/>
	<path d="M 48.688 44.452 h -7.375 c -1.657 0 -3 -1.343 -3 -3 s 1.343 -3 3 -3 h 7.375 c 1.657 0 3 1.343 3 3 S 50.345 44.452 48.688 44.452 z" style="stroke: none; stroke-width: 1; stroke-dasharray: none; stroke-linecap: butt; stroke-linejoin: miter; stroke-miterlimit: 10; fill: rgb(0,151,214); fill-rule: nonzero; opacity: 1;" transform=" matrix(1 0 0 1 0 0) " stroke-linecap="round"/>
	<path d="M 25.779 44.452 h -7.376 c -1.657 0 -3 -1.343 -3 -3 s 1.343 -3 3 -3 h 7.376 c 1.657 0 3 1.343 3 3 S 27.436 44.452 25.779 44.452 z" style="stroke: none; stroke-width: 1; stroke-dasharray: none; stroke-linecap: butt; stroke-linejoin: miter; stroke-miterlimit: 10; fill: rgb(0,151,214); fill-rule: nonzero; opacity: 1;" transform=" matrix(1 0 0 1 0 0) " stroke-linecap="round"/>
	<path d="M 71.597 44.452 h -7.376 c -1.657 0 -3 -1.343 -3 -3 s 1.343 -3 3 -3 h 7.376 c 1.657 0 3 1.343 3 3 S 73.254 44.452 71.597 44.452 z" style="stroke: none; stroke-width: 1; stroke-dasharray: none; stroke-linecap: butt; stroke-linejoin: miter; stroke-miterlimit: 10; fill: rgb(0,151,214); fill-rule: nonzero; opacity: 1;" transform=" matrix(1 0 0 1 0 0) " stroke-linecap="round"/>
	<path d="M 48.688 57.815 h -7.375 c -1.657 0 -3 -1.343 -3 -3 s 1.343 -3 3 -3 h 7.375 c 1.657 0 3 1.343 3 3 S 50.345 57.815 48.688 57.815 z" style="stroke: none; stroke-width: 1; stroke-dasharray: none; stroke-linecap: butt; stroke-linejoin: miter; stroke-miterlimit: 10; fill: rgb(0,151,214); fill-rule: nonzero; opacity: 1;" transform=" matrix(1 0 0 1 0 0) " stroke-linecap="round"/>
	<path d="M 25.779 57.815 h -7.376 c -1.657 0 -3 -1.343 -3 -3 s 1.343 -3 3 -3 h 7.376 c 1.657 0 3 1.343 3 3 S 27.436 57.815 25.779 57.815 z" style="stroke: none; stroke-width: 1; stroke-dasharray: none; stroke-linecap: butt; stroke-linejoin: miter; stroke-miterlimit: 10; fill: rgb(0,151,214); fill-rule: nonzero; opacity: 1;" transform=" matrix(1 0 0 1 0 0) " stroke-linecap="round"/>
	<path d="M 71.597 57.815 h -7.376 c -1.657 0 -3 -1.343 -3 -3 s 1.343 -3 3 -3 h 7.376 c 1.657 0 3 1.343 3 3 S 73.254 57.815 71.597 57.815 z" style="stroke: none; stroke-width: 1; stroke-dasharray: none; stroke-linecap: butt; stroke-linejoin: miter; stroke-miterlimit: 10; fill: rgb(0,151,214); fill-rule: nonzero; opacity: 1;" transform=" matrix(1 0 0 1 0 0) " stroke-linecap="round"/>
	<path d="M 48.688 71.18 h -7.375 c -1.657 0 -3 -1.343 -3 -3 s 1.343 -3 3 -3 h 7.375 c 1.657 0 3 1.343 3 3 S 50.345 71.18 48.688 71.18 z" style="stroke: none; stroke-width: 1; stroke-dasharray: none; stroke-linecap: butt; stroke-linejoin: miter; stroke-miterlimit: 10; fill: rgb(0,151,214); fill-rule: nonzero; opacity: 1;" transform=" matrix(1 0 0 1 0 0) " stroke-linecap="round"/>
	<path d="M 25.779 71.18 h -7.376 c -1.657 0 -3 -1.343 -3 -3 s 1.343 -3 3 -3 h 7.376 c 1.657 0 3 1.343 3 3 S 27.436 71.18 25.779 71.18 z" style="stroke: none; stroke-width: 1; stroke-dasharray: none; stroke-linecap: butt; stroke-linejoin: miter; stroke-miterlimit: 10; fill: rgb(0,151,214); fill-rule: nonzero; opacity: 1;" transform=" matrix(1 0 0 1 0 0) " stroke-linecap="round"/>
	<path d="M 71.597 71.18 h -7.376 c -1.657 0 -3 -1.343 -3 -3 s 1.343 -3 3 -3 h 7.376 c 1.657 0 3 1.343 3 3 S 73.254 71.18 71.597 71.18 z" style="stroke: none; stroke-width: 1; stroke-dasharray: none; stroke-linecap: butt; stroke-linejoin: miter; stroke-miterlimit: 10; fill: rgb(0,151,214); fill-rule: nonzero; opacity: 1;" transform=" matrix(1 0 0 1 0 0) " stroke-linecap="round"/>
</g>
</svg>