<svg width="320" height="155" version="1.1" viewBox="0 0 84.667 41.01" xmlns="http://www.w3.org/2000/svg">
 <defs>
  <clipPath id="clipPath75">
   <path d="m55.458 49.992v16.251c0.06626-0.01336 0.13299-0.02257 0.2005-0.02429 0.02135-0.06512 0.04329-0.13003 0.06563-0.19482 2.43e-4 -0.13094 5.29e-4 -0.26186 0.0021-0.39274 0.0016-0.13852 0.0042-0.27714 0.01188-0.41548 0.0091-0.14467 0.02355-0.28898 0.04754-0.43202 0.0099-0.06207 0.01876-0.12442 0.02894-0.18655-7.93e-4 -0.09681 0.0039-0.19378 0.01654-0.29042 0.03245-0.29612 0.07576-0.59253 0.1695-0.87643 0.0077-0.02167 0.01611-0.04451 0.02479-0.06821 0.01088-0.06679 0.02244-0.13345 0.03566-0.19999 0.0089-0.04463 0.05944-0.29681 0.08837-0.32866 0.04614-0.0508 0.10285-0.08957 0.16123-0.12661-1.03e-4 -0.0093-2.24e-4 -0.01863-5.29e-4 -0.02791 0.0047-0.1294 0.01048-0.25907 0.03152-0.38706 0.0254-0.14456 0.06042-0.28792 0.13074-0.41806 0.06365-0.10858 0.1372-0.21101 0.19689-0.32194 0.07376-0.12202 0.14914-0.24297 0.23978-0.35347 0.08685-0.09987 0.17096-0.20174 0.26717-0.293 0.02162-0.02793 0.04253-0.05608 0.06305-0.08475 0.02207-0.27937 0.0389-0.5594 0.05323-0.83923 0.02098-0.44049 0.02392-0.88151 0.04703-1.3219 0.01196-0.40794 0.08029-0.81023 0.1819-1.2046 0.0455-0.16454 0.02217-0.08448 0.06873-0.23978 0.0801-0.26726 0.24356-0.38222 0.38654-0.37569 0.18382 0.0084 0.33393 0.21773 0.23048 0.56121-0.04169 0.13841-0.02053 0.06638-0.06201 0.21601-0.09178 0.35242-0.1527 0.71213-0.16278 1.0769-0.02342 0.44002-0.02487 0.88072-0.04651 1.3208-0.02244 0.43694-0.05051 0.87364-0.09457 1.309 0.04282-0.08037 0.08797-0.15935 0.13642-0.23668 0.11641-0.18576 0.25575-0.26623 0.37466-0.26924 0.227-0.0057 0.38 0.26954 0.16123 0.62632-0.15384 0.25088-0.27058 0.52163-0.38602 0.79168-0.02996 0.07003-0.05947 0.1405-0.08992 0.21032-0.0098 0.02252-0.03595 0.08169-0.06666 0.1509 0.0056 0.01662 0.01082 0.03336 0.01601 0.05013 0.02096 0.09944 0.03212 0.12936 0.03307 0.23254 0.0013 0.15718-0.04488 0.30941-0.08733 0.45888-0.02654 0.09014-0.05831 0.17843-0.09095 0.26613-0.0029 0.06898-7e-3 0.13779-0.01035 0.20671-0.03149 0.54758-0.06788 1.0966-0.1819 1.6345-0.04463 0.20075-0.05421 0.26561-0.11369 0.45578-0.03607 0.11534-0.08484 0.21951-0.12919 0.33073-0.0087 0.02172-0.01664 0.04373-0.02479 0.06563-0.0021 0.0056-0.0041 0.01111-0.0062 0.01654-0.02291 0.18538-0.05188 0.36987-0.09043 0.55294-0.02461 0.1024-0.04365 0.19671-0.07958 0.29559-0.04868 0.13398-0.12854 0.25388-0.22118 0.36122-0.13992 0.15176-0.29306 0.2908-0.45682 0.41651-0.0088 0.03063-0.01794 0.06139-0.02687 0.09198-0.17857 0.58446-0.34758 1.1716-0.5333 1.7539-0.04944 0.15944-0.07789 0.25124-0.09302 0.30024 0.02151-0.07042 0.04738-0.1568-0.0677 0.20464-0.01918 0.06028-0.02933 0.12393-0.05581 0.18138-0.03477 0.07543-0.04406 0.21457-0.12712 0.21446-0.06227-8.5e-5 -0.1173-5.3e-4 -0.16588-0.0021v8.6667h28.788v-29.359zm1.6257 11.4c-0.03061 0.03949-0.0593 0.08037-0.08682 0.12196 0.01982 0.0077 0.03815 0.01595 0.04496 0.0155h0.001588l0.001058-0.001058v-0.001588c-5.29e-4 -0.0019-0.0021-0.0053-0.0052-0.0093 0.0154-0.01148 0.03048-0.02331 0.04496-0.03565 1.72e-4 -0.02987 1.11e-4 -0.06006-5.3e-4 -0.08992zm-0.04134 0.31626 5.29e-4 5.29e-4v5.3e-4h5.29e-4l5.3e-4 -5.3e-4h5.29e-4v-5.29e-4c-5.29e-4 -8e-6 -0.0011-7.4e-5 -0.0021 0zm-0.16485 4.8772c-0.07029 0.30518-0.14577 0.60906-0.22686 0.91157 0.04974-0.04746 0.0979-0.09647 0.14418-0.14728 0.15138-0.16787 0.18871-0.32774 0.23978-0.5426 0.01193-0.0573 0.02294-0.1145 0.03307-0.17208-0.06907 0.01257-0.13598-0.0057-0.19017-0.04961zm-1.3648 0.04082c-0.01834 4e-3 -0.03654 0.0082-0.05478 0.01291v0.13384c0.01762-0.0493 0.03594-0.09793 0.05478-0.14676z" fill="#f00"/>
  </clipPath>
 </defs>
 <g fill="#532000">
  <path transform="translate(.51536 -39.039)" d="m72.363 50.114a12.62 16.061 42.61 0 0-12.152 6.4074 12.62 16.061 42.61 0 0-0.66249 0.79892c0.06636 1.1561 0.03135 2.3811-0.13126 3.6742-0.60423 4.8049-1.8491 8.3871-3.2685 11.024a12.62 16.061 42.61 0 0 3.1419 4.748 12.62 16.061 42.61 0 0 20.202-3.9455 12.62 16.061 42.61 0 0 0.92139-20.245 12.62 16.061 42.61 0 0-8.0512-2.4619zm-0.03256 2.6675s0.05351 0.01372 0.08165 0.03669c0.02483 0.0203 0.02957 0.04758-0.04031 0.07958-1.6632 0.7622-12.12 5.8147-13.902 16.344-0.0468 0.27654-0.20278 0.14916-0.17518-0.18242 1.1748-14.114 14.036-16.278 14.036-16.278zm5.9371 4.0814c-6.7801 2.4874-6.441 3.4745-9.0237 9.6222-3.0441 7.2458-7.7122 6.9701-7.7122 6.9701s5.2641-3.2585 7.0668-9.7405c1.8027-6.482 9.6692-6.8518 9.6692-6.8518zm2.7166 3.2034c9e-3 -7.53e-4 0.01819 0.0018 0.02687 0.0078 0.04497 0.03096 0.08184 0.14993 0.06718 0.32608-1.1748 14.114-14.035 16.278-14.035 16.278s-0.19091-0.04848-0.04186-0.11679c1.6632-0.7622 12.12-5.8147 13.902-16.344 0.01713-0.10127 0.0491-0.14821 0.08113-0.1509zm-23.325 0.13229a12.62 16.061 42.61 0 0-2.0547 9.108c0.88508-2.4137 1.6093-5.2595 1.9916-8.4946 0.0243-0.20564 0.04521-0.40995 0.06305-0.6134z" clip-path="url(#clipPath75)" stroke="#fff" stroke-linejoin="bevel" stroke-width=".18794"/>
  <path d="m27.321 33.064c-1.6171-2.7013-3.0843-6.5341-3.7569-11.882-0.11521-0.91619-0.15944-1.8008-0.14314-2.6526a15.473 12.063 49.815 0 0-1.0304-1.1333 15.473 12.063 49.815 0 0-19.037-2.1317 15.473 12.063 49.815 0 0 2.6133 19.902 15.473 12.063 49.815 0 0 19.037 2.1322 15.473 12.063 49.815 0 0 2.3177-4.2344zm-16.469-18.302s12.088 1.0133 14.403 14.842c0.05437 0.32486-0.07837 0.4642-0.14573 0.19534-2.5645-10.237-12.68-14.311-14.285-14.918-0.06742-0.0255-0.06513-0.05325-0.04392-0.07545 0.02405-0.02516 0.07235-0.04341 0.07235-0.04341zm-4.8204 4.5449c1.4299 0.02375 7.272 0.46008 9.2248 5.9206 2.2317 6.2406 7.3856 8.9979 7.3856 8.9979s-4.2952 0.67929-7.7422-6.2069c-2.9245-5.8425-2.6965-6.846-9.1865-8.7095 0 0 0.11405-0.0055 0.31833-0.0021zm-2.5569 3.4008c0.030739-0.0038 0.065815 0.03919 0.091467 0.14159 2.5645 10.237 12.68 14.312 14.285 14.919 0.14385 0.05441-0.02842 0.11886-0.02842 0.11886s-12.088-1.0133-14.402-14.842c-0.028889-0.17259-0.00532-0.29315 0.03359-0.32763 0.00644-0.0057 0.013577-0.0089 0.020671-0.0098z" stroke="#fff" stroke-linejoin="bevel" stroke-width=".18035"/>
  <path d="m41.153 0.67662a19.927 15.275 88.064 0 0-14.594 20.432 19.927 15.275 88.064 0 0 15.94 19.4 19.927 15.275 88.064 0 0 14.593-20.432 19.927 15.275 88.064 0 0-15.939-19.4zm1.6502 5.7312c-3.9351 7.9278-2.8187 8.5543-0.01432 16.361 3.3053 9.2007-1.0493 12.829-1.0493 12.829s1.9566-7.3766-1.814-14.842c-3.7706-7.4652 2.8777-14.347 2.8777-14.347zm5.0826 0.67442c0.06537-0.0089 0.19603 0.06968 0.32884 0.24401 10.642 13.968 1.0639 26.654 1.0639 26.654s-0.20888 0.11423-0.13365-0.07258c0.83954-2.0847 5.9022-15.431-1.2359-26.604-0.08788-0.13755-0.08085-0.21332-0.02319-0.22116zm-13.606 0.47202c0.03876-2e-3 0.06567 0.01934 0.03041 0.10691-0.83954 2.0847-5.9022 15.431 1.2359 26.604 0.18748 0.29345-0.05564 0.30576-0.30565-0.02238-10.642-13.968-1.0635-26.654-1.0635-26.654s0.05886-0.03208 0.10278-0.03431z" stroke="#fff" stroke-linejoin="bevel" stroke-width=".23032"/>
  <path d="m32.075 3.1426s-8.336 5.5004-8.5251 15.386c-0.01629 0.85179 0.02793 1.7364 0.14314 2.6526 0.67256 5.3483 2.1397 9.1812 3.7569 11.882 3.4995 5.8457 7.7024 6.3909 6.0823 5.5185-1.5008-0.8081-3.8426-3.6279-5.6586-8.1344-1.0105-2.5077-1.8581-5.5375-2.3074-9.0341-0.01767-0.13754-0.03473-0.27599-0.05116-0.41496-1.1844-10.021 6.5598-17.856 6.5598-17.856z" stroke-linejoin="bevel" stroke-width=".26458"/>
  <path d="m52.515 4.2539s6.6506 7.4706 5.4663 17.492-5.6485 16.308-8.0172 17.583c-2.3687 1.2755 7.7113-0.47858 9.8393-17.401 1.4523-11.549-7.2883-17.674-7.2883-17.674z"/>
 </g>
</svg>
