<svg xmlns="http://www.w3.org/2000/svg" xmlns:xlink="http://www.w3.org/1999/xlink" version="1.1" width="256" height="256" viewBox="0 0 256 256" xml:space="preserve">
<g style="stroke: none; stroke-width: 0; stroke-dasharray: none; stroke-linecap: butt; stroke-linejoin: miter; stroke-miterlimit: 10; fill: rgb(53,173,22); fill-rule: nonzero; opacity: 1;" transform="translate(0 -2.842170943040401e-14) scale(2.81 2.81)">
	<rect x="0" y="0" rx="0" ry="0" width="90" height="90" style="stroke: none; stroke-width: 1; stroke-dasharray: none; stroke-linecap: butt; stroke-linejoin: miter; stroke-miterlimit: 10; fill: rgb(53,173,22); fill-rule: nonzero; opacity: 1;" transform=" matrix(1 0 0 1 0 0) "/>
</g>
<g style="stroke: none; stroke-width: 0; stroke-dasharray: none; stroke-linecap: butt; stroke-linejoin: miter; stroke-miterlimit: 10; fill: none; fill-rule: nonzero; opacity: 1;" transform="translate(32.807305370685654 32.807305370685626) scale(2.12 2.12)">
	<path d="M 58.541 49.764 L 90 26.086 v -1.375 c 0 -1.419 -1.151 -2.57 -2.57 -2.57 H 29.651 c -1.419 0 -2.57 1.151 -2.57 2.57 v 1.375 L 58.541 49.764 z" style="stroke: none; stroke-width: 1; stroke-dasharray: none; stroke-linecap: butt; stroke-linejoin: miter; stroke-miterlimit: 10; fill: rgb(255,255,255); fill-rule: nonzero; opacity: 1;" transform=" matrix(1 0 0 1 0 0) " stroke-linecap="round"/>
	<path d="M 60.222 55.5 c -0.498 0.375 -1.09 0.562 -1.681 0.562 c -0.591 0 -1.184 -0.187 -1.681 -0.562 L 27.081 33.086 v 32.203 c 0 1.419 1.151 2.57 2.57 2.57 H 87.43 c 1.419 0 2.57 -1.151 2.57 -2.57 V 33.086 L 60.222 55.5 z" style="stroke: none; stroke-width: 1; stroke-dasharray: none; stroke-linecap: butt; stroke-linejoin: miter; stroke-miterlimit: 10; fill: rgb(255,255,255); fill-rule: nonzero; opacity: 1;" transform=" matrix(1 0 0 1 0 0) " stroke-linecap="round"/>
	<path d="M 21.766 53.603 H 10.321 c -1.642 0 -2.973 -1.331 -2.973 -2.973 V 50.52 c 0 -1.642 1.331 -2.973 2.973 -2.973 h 11.444 V 53.603 z" style="stroke: none; stroke-width: 1; stroke-dasharray: none; stroke-linecap: butt; stroke-linejoin: miter; stroke-miterlimit: 10; fill: rgb(255,255,255); fill-rule: nonzero; opacity: 1;" transform=" matrix(1 0 0 1 0 0) " stroke-linecap="round"/>
	<path d="M 21.766 63.786 H 3.028 C 1.356 63.786 0 62.43 0 60.758 v 0 c 0 -1.672 1.356 -3.028 3.028 -3.028 h 18.738 V 63.786 z" style="stroke: none; stroke-width: 1; stroke-dasharray: none; stroke-linecap: butt; stroke-linejoin: miter; stroke-miterlimit: 10; fill: rgb(255,255,255); fill-rule: nonzero; opacity: 1;" transform=" matrix(1 0 0 1 0 0) " stroke-linecap="round"/>
	<path d="M 21.766 43.419 h -5.533 c -1.642 0 -2.973 -1.331 -2.973 -2.973 v -0.109 c 0 -1.642 1.331 -2.973 2.973 -2.973 h 5.533 V 43.419 z" style="stroke: none; stroke-width: 1; stroke-dasharray: none; stroke-linecap: butt; stroke-linejoin: miter; stroke-miterlimit: 10; fill: rgb(255,255,255); fill-rule: nonzero; opacity: 1;" transform=" matrix(1 0 0 1 0 0) " stroke-linecap="round"/>
</g>
</svg>