<svg xmlns="http://www.w3.org/2000/svg" xmlns:xlink="http://www.w3.org/1999/xlink" version="1.1" width="256" height="256" viewBox="0 0 256 256" xml:space="preserve">
<g style="stroke: none; stroke-width: 0; stroke-dasharray: none; stroke-linecap: butt; stroke-linejoin: miter; stroke-miterlimit: 10; fill: none; fill-rule: nonzero; opacity: 1;" transform="translate(1.4065934065934016 1.4065934065934016) scale(2.81 2.81)">
	<path d="M 53.281 2.6 v 8.985 c 0 0.27 -0.291 0.44 -0.526 0.307 l -8.65 -4.88 c -0.235 -0.133 -0.526 0.037 -0.526 0.307 v 4.535 c 0 0.27 -0.291 0.44 -0.526 0.307 l -9.128 -5.15 c -0.235 -0.133 -0.526 0.037 -0.526 0.307 v 14.507 c 0 0.195 0.158 0.353 0.353 0.353 h 9.828 h 4.846 h 4.856 h 4.972 c 0.195 0 0.353 -0.158 0.353 -0.353 v -6.634 V 2.6 c 0 -0.195 -0.158 -0.353 -0.353 -0.353 h -4.619 C 53.439 2.247 53.281 2.405 53.281 2.6 z" style="stroke: none; stroke-width: 1; stroke-dasharray: none; stroke-linecap: butt; stroke-linejoin: miter; stroke-miterlimit: 10; fill: rgb(44,35,80); fill-rule: nonzero; opacity: 1;" transform=" matrix(1 0 0 1 0 0) " stroke-linecap="round"/>
	<path d="M 62.068 43.29 c -1.239 0 -2.35 -0.713 -2.92 -1.813 c -0.113 -0.22 -0.233 -0.437 -0.357 -0.653 c -0.125 -0.216 -0.254 -0.428 -0.387 -0.636 c -0.668 -1.043 -0.73 -2.362 -0.11 -3.435 c 0.9 -1.559 0.366 -3.552 -1.193 -4.452 l -4.316 -2.492 c -1.559 -0.9 -3.552 -0.366 -4.452 1.193 l -0.001 0.002 c -0.61 1.057 -1.761 1.68 -2.98 1.621 c -0.53 -0.026 -1.062 -0.026 -1.594 0 c -1.218 0.059 -2.365 -0.566 -2.974 -1.622 l -0.001 -0.001 c -0.9 -1.559 -2.893 -2.093 -4.452 -1.193 l -4.316 2.492 c -1.559 0.9 -2.093 2.893 -1.193 4.452 l 0.001 0.001 c 0.61 1.055 0.577 2.362 -0.083 3.386 c -0.289 0.449 -0.554 0.909 -0.797 1.381 c -0.558 1.086 -1.673 1.77 -2.893 1.77 h -0.002 c -1.8 0 -3.259 1.459 -3.259 3.259 v 4.985 c 0 1.8 1.459 3.259 3.259 3.259 l 0 0 c 1.239 0 2.35 0.713 2.92 1.813 c 0.113 0.219 0.233 0.437 0.357 0.653 s 0.254 0.428 0.387 0.636 c 0.668 1.043 0.73 2.362 0.11 3.435 c -0.9 1.559 -0.366 3.552 1.193 4.452 l 4.316 2.492 c 1.559 0.9 3.552 0.366 4.452 -1.193 l 0.001 -0.002 c 0.61 -1.057 1.761 -1.68 2.98 -1.621 c 0.53 0.026 1.062 0.026 1.594 0 c 1.218 -0.059 2.365 0.566 2.974 1.622 l 0.001 0.001 c 0.9 1.559 2.893 2.093 4.452 1.193 l 4.316 -2.492 c 1.559 -0.9 2.093 -2.893 1.193 -4.452 l -0.001 -0.001 c -0.61 -1.055 -0.577 -2.362 0.083 -3.386 c 0.289 -0.449 0.554 -0.909 0.797 -1.381 c 0.558 -1.086 1.673 -1.77 2.893 -1.77 h 0.002 c 1.8 0 3.259 -1.459 3.259 -3.259 v -4.985 C 65.327 44.749 63.868 43.29 62.068 43.29 z M 49.172 57.035 c -4.415 2.549 -10.06 1.036 -12.608 -3.378 c -2.549 -4.415 -1.036 -10.06 3.378 -12.608 s 10.06 -1.036 12.608 3.378 C 55.099 48.842 53.587 54.486 49.172 57.035 z" style="stroke: none; stroke-width: 1; stroke-dasharray: none; stroke-linecap: butt; stroke-linejoin: miter; stroke-miterlimit: 10; fill: rgb(44,35,80); fill-rule: nonzero; opacity: 1;" transform=" matrix(1 0 0 1 0 0) " stroke-linecap="round"/>
	<path d="M 5.571 49.766 c -0.552 0 -1 -0.447 -1 -1 c 0 -14.31 7.724 -27.618 20.159 -34.732 c 0.479 -0.273 1.089 -0.107 1.365 0.372 c 0.274 0.479 0.108 1.09 -0.372 1.365 C 13.91 22.528 6.571 35.171 6.571 48.766 C 6.571 49.318 6.124 49.766 5.571 49.766 z" style="stroke: none; stroke-width: 1; stroke-dasharray: none; stroke-linecap: butt; stroke-linejoin: miter; stroke-miterlimit: 10; fill: rgb(44,35,80); fill-rule: nonzero; opacity: 1;" transform=" matrix(1 0 0 1 0 0) " stroke-linecap="round"/>
	<path d="M 44.558 88.753 c -6.963 0 -13.819 -1.816 -19.826 -5.254 c -0.479 -0.274 -0.646 -0.886 -0.372 -1.365 c 0.275 -0.479 0.885 -0.646 1.365 -0.371 c 5.706 3.265 12.218 4.99 18.833 4.99 c 6.233 0 12.414 -1.542 17.873 -4.459 c 0.489 -0.26 1.094 -0.077 1.354 0.41 c 0.261 0.487 0.076 1.094 -0.41 1.354 C 57.625 87.129 51.118 88.753 44.558 88.753 z" style="stroke: none; stroke-width: 1; stroke-dasharray: none; stroke-linecap: butt; stroke-linejoin: miter; stroke-miterlimit: 10; fill: rgb(44,35,80); fill-rule: nonzero; opacity: 1;" transform=" matrix(1 0 0 1 0 0) " stroke-linecap="round"/>
	<path d="M 83.352 53.682 c -0.033 0 -0.066 -0.002 -0.101 -0.005 c -0.55 -0.055 -0.95 -0.545 -0.896 -1.095 c 0.126 -1.255 0.189 -2.539 0.189 -3.816 c 0 -12.718 -6.322 -24.535 -16.913 -31.61 c -0.459 -0.307 -0.583 -0.928 -0.275 -1.387 c 0.306 -0.459 0.925 -0.584 1.387 -0.276 c 11.146 7.447 17.802 19.886 17.802 33.273 c 0 1.344 -0.067 2.695 -0.199 4.016 C 84.294 53.297 83.859 53.682 83.352 53.682 z" style="stroke: none; stroke-width: 1; stroke-dasharray: none; stroke-linecap: butt; stroke-linejoin: miter; stroke-miterlimit: 10; fill: rgb(44,35,80); fill-rule: nonzero; opacity: 1;" transform=" matrix(1 0 0 1 0 0) " stroke-linecap="round"/>
	<path d="M 65.139 74.862 h -2.16 c -0.403 0 -0.73 -0.327 -0.73 -0.73 V 69.57 c 0 -0.179 0.066 -0.352 0.185 -0.485 l 4.549 -5.117 c 0.139 -0.156 0.337 -0.245 0.546 -0.245 h 3.501 v 11.139 H 70.06" style="stroke: none; stroke-width: 1; stroke-dasharray: none; stroke-linecap: butt; stroke-linejoin: miter; stroke-miterlimit: 10; fill: rgb(44,35,80); fill-rule: nonzero; opacity: 1;" transform=" matrix(1 0 0 1 0 0) " stroke-linecap="round"/>
	<path d="M 85.983 74.862 h 1.514 h 1.71 c 0.438 0 0.792 -0.437 0.792 -0.977 V 61.266 c 0 -1.119 -0.736 -2.026 -1.643 -2.026 H 72.672 c -0.908 0 -1.643 0.907 -1.643 2.026 v 2.999 v 3.548 v 7.048 h 10.034" style="stroke: none; stroke-width: 1; stroke-dasharray: none; stroke-linecap: butt; stroke-linejoin: miter; stroke-miterlimit: 10; fill: rgb(44,35,80); fill-rule: nonzero; opacity: 1;" transform=" matrix(1 0 0 1 0 0) " stroke-linecap="round"/>
	<circle cx="67.601" cy="74.761" r="2.461" style="stroke: none; stroke-width: 1; stroke-dasharray: none; stroke-linecap: butt; stroke-linejoin: miter; stroke-miterlimit: 10; fill: rgb(44,35,80); fill-rule: nonzero; opacity: 1;" transform="  matrix(1 0 0 1 0 0) "/>
	<circle cx="83.521" cy="74.761" r="2.461" style="stroke: none; stroke-width: 1; stroke-dasharray: none; stroke-linecap: butt; stroke-linejoin: miter; stroke-miterlimit: 10; fill: rgb(44,35,80); fill-rule: nonzero; opacity: 1;" transform="  matrix(1 0 0 1 0 0) "/>
	<polyline points="0,61.05 10.71,56.34 21.41,61.05 10.71,65.77 0,61.05 " style="stroke: none; stroke-width: 1; stroke-dasharray: none; stroke-linecap: butt; stroke-linejoin: miter; stroke-miterlimit: 10; fill: rgb(44,35,80); fill-rule: nonzero; opacity: 1;" transform="  matrix(1 0 0 1 0 0) "/>
	<polygon points="10.71,79.33 10.71,65.77 21.41,61.05 21.41,74.61 " style="stroke: none; stroke-width: 1; stroke-dasharray: none; stroke-linecap: butt; stroke-linejoin: miter; stroke-miterlimit: 10; fill: rgb(44,35,80); fill-rule: nonzero; opacity: 1;" transform="  matrix(1 0 0 1 0 0) "/>
	<polygon points="10.71,79.33 10.71,65.77 0,61.05 0,74.61 " style="stroke: none; stroke-width: 1; stroke-dasharray: none; stroke-linecap: butt; stroke-linejoin: miter; stroke-miterlimit: 10; fill: rgb(44,35,80); fill-rule: nonzero; opacity: 1;" transform="  matrix(1 0 0 1 0 0) "/>
</g>
</svg>