<svg xmlns="http://www.w3.org/2000/svg" xmlns:xlink="http://www.w3.org/1999/xlink" version="1.1" width="256" height="256" viewBox="0 0 256 256" xml:space="preserve">
<g style="stroke: none; stroke-width: 0; stroke-dasharray: none; stroke-linecap: butt; stroke-linejoin: miter; stroke-miterlimit: 10; fill: none; fill-rule: nonzero; opacity: 1;" transform="translate(1.4065934065934016 1.4065934065934016) scale(2.81 2.81)">
	<polygon points="47.5,49.54 60.19,43.25 60.19,25.61 47.5,31.9 " style="stroke: none; stroke-width: 1; stroke-dasharray: none; stroke-linecap: butt; stroke-linejoin: miter; stroke-miterlimit: 10; fill: rgb(44,35,80); fill-rule: nonzero; opacity: 1;" transform="  matrix(1 0 0 1 0 0) "/>
	<polygon points="29.81,43.25 42.5,49.54 42.5,31.9 29.81,25.61 " style="stroke: none; stroke-width: 1; stroke-dasharray: none; stroke-linecap: butt; stroke-linejoin: miter; stroke-miterlimit: 10; fill: rgb(44,35,80); fill-rule: nonzero; opacity: 1;" transform="  matrix(1 0 0 1 0 0) "/>
	<polygon points="45,15.61 32.94,21.59 45,27.56 57.06,21.59 " style="stroke: none; stroke-width: 1; stroke-dasharray: none; stroke-linecap: butt; stroke-linejoin: miter; stroke-miterlimit: 10; fill: rgb(44,35,80); fill-rule: nonzero; opacity: 1;" transform="  matrix(1 0 0 1 0 0) "/>
	<path d="M 45 0 C 25.463 0 9.625 15.839 9.625 35.375 c 0 8.722 3.171 16.693 8.405 22.861 L 45 90 l 26.97 -31.766 c 5.234 -6.167 8.405 -14.139 8.405 -22.862 C 80.376 15.839 64.537 0 45 0 z M 65.191 44.802 c 0 0.95 -0.539 1.818 -1.391 2.24 l -17.691 8.763 c -0.093 0.046 -0.192 0.07 -0.289 0.104 c -0.065 0.023 -0.127 0.052 -0.193 0.069 c -0.206 0.054 -0.416 0.087 -0.628 0.087 c -0.211 0 -0.421 -0.033 -0.628 -0.087 c -0.066 -0.017 -0.128 -0.046 -0.193 -0.069 c -0.097 -0.034 -0.196 -0.057 -0.289 -0.104 l -17.692 -8.763 c -0.852 -0.422 -1.391 -1.29 -1.391 -2.24 V 21.586 c 0 -0.227 0.034 -0.449 0.093 -0.663 c 0.02 -0.072 0.056 -0.136 0.082 -0.205 c 0.051 -0.137 0.103 -0.273 0.177 -0.398 c 0.044 -0.075 0.102 -0.139 0.154 -0.209 c 0.079 -0.107 0.158 -0.211 0.253 -0.305 c 0.067 -0.065 0.143 -0.119 0.217 -0.176 c 0.07 -0.054 0.129 -0.12 0.205 -0.167 c 0.037 -0.023 0.08 -0.033 0.118 -0.054 c 0.033 -0.018 0.057 -0.046 0.091 -0.062 l 17.692 -8.763 c 0.698 -0.347 1.52 -0.347 2.219 0 l 17.691 8.763 c 0.034 0.017 0.059 0.044 0.091 0.063 c 0.038 0.021 0.08 0.031 0.117 0.054 c 0.076 0.047 0.136 0.113 0.205 0.167 c 0.074 0.058 0.15 0.111 0.216 0.176 c 0.096 0.094 0.174 0.198 0.253 0.305 c 0.052 0.07 0.11 0.134 0.154 0.209 c 0.074 0.126 0.126 0.261 0.177 0.398 c 0.026 0.07 0.063 0.134 0.083 0.206 c 0.059 0.214 0.093 0.435 0.093 0.663 V 44.802 z" style="stroke: none; stroke-width: 1; stroke-dasharray: none; stroke-linecap: butt; stroke-linejoin: miter; stroke-miterlimit: 10; fill: rgb(44,35,80); fill-rule: nonzero; opacity: 1;" transform=" matrix(1 0 0 1 0 0) " stroke-linecap="round"/>
</g>
</svg>