<?xml version="1.0" standalone="no"?>
<!DOCTYPE svg PUBLIC "-//W3C//DTD SVG 20010904//EN"
 "http://www.w3.org/TR/2001/REC-SVG-20010904/DTD/svg10.dtd">
<svg version="1.0" xmlns="http://www.w3.org/2000/svg"
 width="964.000000pt" height="668.000000pt" viewBox="0 0 964.000000 668.000000"
 preserveAspectRatio="xMidYMid meet">
<metadata>
Created by potrace 1.16, written by Peter Selinger 2001-2019
</metadata>
<g transform="translate(0.000000,668.000000) scale(0.100000,-0.100000)"
fill="#000000" stroke="none">
<path d="M5228 6465 c-30 -51 -35 -55 -62 -50 -16 3 -38 13 -48 21 -12 12 -28
15 -54 11 -44 -7 -60 -20 -84 -68 -21 -40 -73 -89 -96 -89 -7 0 -28 -9 -46
-20 -26 -15 -51 -20 -112 -20 l-79 0 6 -34 c14 -86 -36 -188 -108 -223 -16 -8
-41 -21 -55 -28 -34 -20 -53 -19 -83 5 l-25 20 -102 -27 c-84 -23 -102 -32
-106 -50 -11 -42 -40 -57 -105 -56 -57 2 -59 1 -48 -18 9 -17 7 -25 -9 -42
-46 -50 -92 -207 -92 -315 0 -48 5 -62 50 -129 61 -91 68 -137 28 -180 -24
-25 -107 -48 -140 -37 -12 3 -46 31 -74 61 -46 48 -55 53 -81 47 -15 -4 -41
-18 -56 -31 -16 -12 -36 -23 -45 -23 -10 0 -23 -9 -30 -20 -15 -24 -59 -27
-88 -5 -28 21 -33 19 -53 -29 -24 -55 -67 -86 -119 -86 -45 0 -73 26 -125 115
l-28 48 -50 -49 c-36 -35 -49 -56 -49 -77 0 -30 -16 -67 -34 -79 -37 -25 -106
4 -132 55 l-16 29 -32 -31 c-36 -35 -63 -38 -107 -16 -29 15 -31 15 -60 -10
-22 -18 -42 -25 -73 -25 -40 0 -43 -2 -39 -23 3 -16 -5 -33 -26 -56 -28 -30
-36 -33 -69 -28 -43 7 -62 29 -62 69 0 34 -30 39 -51 8 -17 -23 -95 -46 -130
-37 -13 4 -42 29 -64 57 -36 45 -43 49 -70 45 -16 -3 -109 -8 -205 -11 -96 -2
-190 -9 -209 -14 -28 -8 -43 -5 -86 16 -50 23 -55 24 -106 10 -30 -8 -72 -21
-94 -30 -70 -27 -176 -44 -228 -36 -45 6 -53 4 -114 -32 -85 -52 -115 -64
-193 -78 -97 -17 -96 -16 -121 -78 -83 -210 -165 -287 -235 -221 -21 19 -24
20 -53 5 -17 -9 -31 -18 -31 -21 0 -2 14 -26 30 -52 22 -35 30 -59 30 -93 0
-77 81 -179 258 -324 66 -54 82 -73 82 -95 0 -31 -16 -51 -42 -51 -16 0 -15
-5 11 -37 63 -79 74 -163 34 -265 -14 -36 -60 -68 -96 -68 -9 0 -27 -10 -41
-22 -33 -29 -253 -407 -353 -605 l-77 -152 54 -111 c49 -102 52 -114 42 -146
-10 -33 -9 -35 22 -48 21 -9 40 -29 56 -60 l25 -47 -30 -25 c-16 -13 -39 -24
-50 -23 -11 1 -37 1 -57 0 l-37 -1 -26 -81 c-14 -44 -25 -97 -25 -117 0 -64
-19 -110 -62 -152 l-41 -39 13 -45 c11 -41 16 -46 42 -46 17 0 27 -4 23 -10
-3 -5 -2 -10 4 -10 6 0 20 -19 32 -41 19 -39 23 -41 56 -36 47 8 84 -12 108
-57 11 -20 20 -36 21 -36 0 0 15 5 32 11 43 15 93 -3 131 -47 17 -19 32 -34
35 -34 2 0 12 22 21 49 9 27 23 55 31 62 27 22 81 13 145 -25 l60 -36 29 21
c23 18 34 20 57 12 16 -6 104 -9 200 -7 l173 3 39 32 c58 46 114 43 201 -11
25 -15 61 -33 81 -39 20 -7 45 -21 54 -31 10 -11 23 -20 30 -20 20 0 53 43 79
102 42 95 61 105 410 211 37 11 76 28 87 36 10 9 27 49 38 90 10 41 28 85 38
100 17 22 78 61 115 74 10 3 10 7 -1 20 -12 15 -11 17 6 17 16 0 22 10 29 42
8 36 13 43 32 41 12 -2 22 1 22 6 0 11 40 24 143 46 52 12 81 23 87 35 5 10
27 28 47 41 21 12 53 35 70 50 18 16 49 31 69 35 47 9 144 -7 209 -34 28 -12
68 -24 89 -27 24 -4 49 -17 65 -34 l26 -27 45 17 c63 25 85 23 107 -7 l19 -26
47 16 c56 19 139 21 170 5 12 -7 43 -35 68 -63 45 -50 46 -50 52 -24 10 37 56
54 93 35 33 -17 76 -61 95 -97 8 -15 16 -77 19 -156 4 -89 10 -137 19 -148 8
-9 41 -32 74 -50 52 -30 62 -32 74 -20 30 30 102 8 142 -42 16 -21 21 -41 21
-88 0 -34 5 -67 12 -74 6 -6 14 -30 17 -53 l6 -42 86 -17 c134 -27 139 -31
171 -130 16 -47 33 -109 40 -137 12 -52 13 -53 65 -68 52 -15 73 -36 73 -73 0
-13 -17 -27 -54 -45 -30 -15 -60 -27 -65 -27 -6 0 -11 -8 -11 -18 0 -41 -66
-58 -102 -26 -14 14 -20 15 -33 4 -21 -17 -68 -15 -99 5 -23 15 -26 15 -45 -4
-12 -12 -29 -21 -39 -21 -11 0 -24 -11 -30 -25 -15 -32 -57 -43 -91 -24 -21
12 -26 23 -26 52 0 45 -7 46 -34 8 -31 -44 -26 -65 30 -120 51 -51 52 -51 45
-98 -10 -67 -11 -84 -2 -115 7 -24 3 -33 -27 -60 -19 -18 -44 -40 -56 -48 -19
-14 -20 -18 -10 -52 16 -48 -1 -88 -52 -129 -38 -30 -39 -32 -39 -96 0 -55 4
-72 25 -99 l25 -33 -70 -37 c-59 -30 -68 -39 -60 -54 9 -17 95 -40 151 -40 24
0 30 5 39 40 12 44 39 64 78 57 27 -5 73 27 146 99 41 41 85 61 152 70 52 6
56 8 51 31 -3 15 1 27 11 32 14 8 14 17 -7 88 -13 43 -29 93 -37 111 -18 42
-18 57 2 76 21 22 66 20 97 -4 32 -25 57 -17 57 20 0 35 23 59 62 67 22 4 33
14 40 35 11 30 47 52 72 42 14 -6 48 66 101 218 27 75 27 79 11 118 -18 45
-11 71 27 101 l20 16 -21 31 c-12 16 -22 41 -22 55 0 67 135 177 271 222 84
28 91 37 64 85 -8 14 -14 41 -15 61 0 29 5 38 25 47 14 7 32 12 40 12 8 0 15
4 15 10 0 18 54 39 74 28 26 -15 46 -70 40 -110 l-6 -34 41 4 c23 2 41 7 41
11 0 3 -12 24 -27 45 -23 35 -25 44 -16 77 9 35 8 40 -19 66 -16 15 -40 52
-55 82 -14 31 -48 76 -74 102 -55 53 -61 81 -24 105 22 14 29 14 79 0 36 -11
62 -26 75 -44 46 -61 77 -97 105 -121 39 -36 66 -92 67 -143 0 -24 6 -63 12
-88 12 -44 12 -45 57 -45 25 0 51 4 57 8 7 5 30 7 50 4 32 -4 49 2 109 39 80
49 94 52 117 26 27 -29 20 -47 -33 -92 -41 -34 -50 -48 -50 -74 0 -61 -50 -96
-139 -96 -29 0 -33 -3 -28 -22 3 -11 -1 -34 -9 -49 -19 -38 -19 -39 19 -39 25
0 37 -6 45 -23 8 -17 11 -18 11 -4 1 27 57 22 87 -8 42 -42 94 -35 180 24 48
33 87 51 118 55 30 5 46 12 46 21 0 21 46 48 70 42 17 -4 21 3 31 54 6 32 14
59 16 59 3 0 30 -23 60 -50 31 -28 68 -57 84 -66 28 -14 29 -14 29 10 0 27 50
76 78 76 15 1 15 2 0 11 -27 15 -22 31 20 72 43 42 72 46 159 24 46 -12 53
-12 58 1 3 9 1 20 -5 26 -16 16 -12 61 8 79 24 22 39 21 85 -2 21 -10 53 -19
73 -19 19 0 38 -3 41 -6 4 -3 16 2 27 13 12 10 36 21 54 25 89 17 89 17 113
64 20 40 29 47 57 50 28 3 37 10 53 45 24 55 24 64 -7 108 -28 41 -26 72 5 89
27 14 92 -7 118 -38 l23 -27 6 33 c4 21 19 43 40 59 23 17 41 44 55 84 26 72
119 177 182 208 24 12 62 21 84 21 39 0 42 2 67 55 32 63 80 105 154 131 37
14 59 29 77 54 13 19 57 70 97 112 54 58 80 78 99 78 23 0 27 6 38 55 7 30 23
68 36 83 25 30 176 113 258 142 51 18 52 19 58 66 4 40 2 50 -18 70 -13 13
-23 35 -23 52 0 15 -7 53 -16 83 -9 30 -16 81 -16 114 1 56 3 62 33 85 18 14
57 47 86 74 l54 50 -7 52 c-7 59 13 115 51 140 12 8 96 38 186 68 90 29 185
64 211 77 l48 24 -20 30 c-11 17 -25 38 -32 47 -9 13 -10 25 -2 45 11 31 6
166 -6 158 -4 -3 -20 5 -35 17 -24 19 -27 26 -21 65 5 40 3 47 -31 86 -21 23
-38 44 -40 46 -1 1 -12 -4 -25 -13 -29 -20 -41 -20 -67 2 -15 12 -25 41 -37
104 -14 77 -14 90 -1 117 15 29 14 30 -15 40 -43 15 -88 67 -88 103 0 40 14
62 55 88 28 17 35 28 35 53 0 18 15 61 32 95 l33 64 -32 26 c-17 15 -52 44
-76 64 l-45 38 -38 -16 c-21 -9 -64 -17 -95 -17 -48 -1 -62 2 -83 22 -14 14
-26 30 -26 38 0 24 -49 27 -73 4 -13 -11 -37 -26 -55 -32 -29 -10 -36 -8 -81
25 -45 32 -50 33 -56 16 -10 -33 -53 -53 -99 -45 -22 3 -59 6 -81 6 -22 0 -52
5 -67 10 -21 9 -38 7 -74 -5 -59 -20 -91 -20 -127 -1 -15 8 -25 10 -22 4 12
-18 -16 -78 -51 -109 -47 -40 -81 -39 -134 5 -33 28 -51 35 -83 35 -61 0 -150
59 -182 121 -9 17 -26 29 -46 33 -18 3 -41 14 -51 23 -17 16 -21 15 -56 -20
-20 -20 -73 -60 -117 -89 -66 -44 -84 -62 -108 -108 -15 -30 -33 -60 -39 -67
-15 -18 -70 -16 -112 3 -33 16 -35 16 -57 -5 -12 -11 -34 -21 -48 -21 -27 0
-81 28 -117 61 -30 28 -74 9 -152 -62 -83 -78 -98 -81 -149 -30 -26 27 -50 41
-66 41 -46 0 -111 110 -105 176 2 29 -6 42 -63 101 -36 37 -74 80 -83 96 -13
19 -27 27 -48 27 -29 0 -59 23 -89 69 l-16 25 -60 -47 c-68 -54 -119 -68 -155
-45 -45 29 -77 28 -115 -5 -45 -40 -87 -41 -121 -2 -18 22 -23 36 -19 60 5 27
2 33 -24 42 -27 11 -29 15 -29 65 0 53 -1 55 -41 78 -62 34 -79 55 -79 95 0
31 6 39 47 65 26 16 55 32 65 36 34 10 14 27 -56 46 -37 10 -81 25 -97 33 -32
17 -72 81 -88 141 -8 30 -18 43 -34 48 -12 3 -47 23 -76 46 -30 22 -56 40 -57
40 -2 0 -18 -25 -36 -55z"/>
<path d="M6920 1594 c0 -4 5 -24 11 -45 8 -25 16 -36 25 -32 24 9 64 -7 75
-30 15 -34 -23 -113 -64 -132 -55 -24 -110 -69 -147 -117 -19 -26 -64 -70
-100 -98 -85 -68 -99 -87 -93 -124 4 -26 0 -34 -24 -48 -16 -9 -53 -42 -83
-74 -54 -57 -54 -57 -31 -68 20 -9 26 -6 43 17 28 39 94 70 133 64 17 -3 80
-23 139 -46 89 -33 112 -39 129 -29 38 20 86 26 127 16 45 -12 127 -80 160
-133 37 -60 41 -89 18 -135 l-21 -42 22 -52 c27 -65 27 -94 -1 -123 l-21 -23
40 0 c22 0 63 -9 91 -21 46 -19 52 -20 80 -5 17 9 41 16 53 16 33 0 92 45 116
88 12 20 34 80 48 132 35 121 65 180 117 231 43 41 105 79 131 79 8 0 20 7 28
16 9 11 25 15 51 12 37 -3 38 -3 38 30 0 42 21 83 59 115 25 21 29 30 25 58
-7 46 28 97 86 127 54 27 95 28 182 3 66 -18 68 -18 74 1 8 26 38 44 116 68
36 11 77 29 90 39 l23 19 -22 24 c-45 48 -51 120 -15 176 17 27 12 27 -67 8
-31 -8 -68 -17 -83 -20 -23 -5 -28 -12 -28 -37 0 -21 -10 -40 -30 -61 -28 -27
-36 -30 -79 -26 -47 5 -49 4 -64 -27 -9 -18 -41 -54 -71 -81 -31 -26 -58 -56
-62 -66 -10 -33 -48 -40 -98 -17 -35 15 -57 18 -94 13 -62 -8 -129 19 -162 65
l-22 32 20 22 21 22 -29 35 c-25 30 -35 35 -77 37 -157 7 -157 7 -170 33 l-12
25 -12 -33 c-23 -68 -139 -73 -139 -6 0 17 -8 23 -35 28 -39 8 -59 36 -52 72
6 34 -6 30 -22 -7 -23 -52 -83 -58 -107 -10 -16 32 -20 34 -43 19 -16 -10 -21
-23 -21 -55 0 -23 -4 -44 -8 -47 -4 -2 -30 22 -56 54 -27 33 -52 58 -55 57 -3
-1 -16 4 -28 11 -13 7 -23 10 -23 6z"/>
</g>
</svg>
