<svg xmlns="http://www.w3.org/2000/svg" xmlns:xlink="http://www.w3.org/1999/xlink" version="1.1" width="256" height="256" viewBox="0 0 256 256" xml:space="preserve">

<defs>
</defs>
<g style="stroke: none; stroke-width: 0; stroke-dasharray: none; stroke-linecap: butt; stroke-linejoin: miter; stroke-miterlimit: 10; fill: rgb(255,255,255); fill-rule: nonzero; opacity: 1;" transform="translate(0 0) scale(2.81 2.81)" >
	<rect x="0" y="0" rx="0" ry="0" width="90" height="90" style="stroke: none; stroke-width: 1; stroke-dasharray: none; stroke-linecap: butt; stroke-linejoin: miter; stroke-miterlimit: 10; fill: rgb(255,255,255); fill-rule: nonzero; opacity: 1;" transform=" matrix(1 0 0 1 0 0) "/>
</g>
<g style="stroke: none; stroke-width: 0; stroke-dasharray: none; stroke-linecap: butt; stroke-linejoin: miter; stroke-miterlimit: 10; fill: none; fill-rule: nonzero; opacity: 1;" transform="translate(46.17984832069338 46.17984832069338) scale(1.82 1.82)" >
	<path d="M 63.718 90 H 26.282 C 11.767 90 0 78.233 0 63.718 V 26.282 C 0 11.767 11.767 0 26.282 0 h 37.437 C 78.233 0 90 11.767 90 26.282 v 37.437 C 90 78.233 78.233 90 63.718 90 z" style="stroke: none; stroke-width: 1; stroke-dasharray: none; stroke-linecap: butt; stroke-linejoin: miter; stroke-miterlimit: 10; fill: rgb(0,171,255); fill-rule: nonzero; opacity: 1;" transform=" matrix(1 0 0 1 0 0) " stroke-linecap="round" />
	<path d="M 73.718 80 H 36.282 C 21.767 80 10 68.233 10 53.718 V 16.282 c 0 -4.673 1.225 -9.057 3.363 -12.86 C 5.392 7.934 0 16.468 0 26.282 v 37.437 C 0 78.233 11.767 90 26.282 90 h 37.437 c 9.813 0 18.347 -5.392 22.86 -13.363 C 82.776 78.775 78.391 80 73.718 80 z" style="stroke: none; stroke-width: 1; stroke-dasharray: none; stroke-linecap: butt; stroke-linejoin: miter; stroke-miterlimit: 10; fill: rgb(0,156,232); fill-rule: nonzero; opacity: 1;" transform=" matrix(1 0 0 1 0 0) " stroke-linecap="round" />
	<circle cx="45.269" cy="45.269" r="19.909" style="stroke: none; stroke-width: 1; stroke-dasharray: none; stroke-linecap: butt; stroke-linejoin: miter; stroke-miterlimit: 10; fill: rgb(240,240,240); fill-rule: nonzero; opacity: 1;" transform="  matrix(1 0 0 1 0 0) "/>
	<path d="M 54.271 56.179 c -10.995 0 -19.909 -8.913 -19.909 -19.909 c 0 -3.174 0.762 -6.163 2.083 -8.826 C 29.884 30.7 25.362 37.449 25.362 45.27 c 0 10.995 8.913 19.909 19.909 19.909 c 7.821 0 14.57 -4.521 17.826 -11.083 C 60.434 55.417 57.444 56.179 54.271 56.179 z" style="stroke: none; stroke-width: 1; stroke-dasharray: none; stroke-linecap: butt; stroke-linejoin: miter; stroke-miterlimit: 10; fill: rgb(255,255,255); fill-rule: nonzero; opacity: 1;" transform=" matrix(1 0 0 1 0 0) " stroke-linecap="round" />
	<circle cx="67.92" cy="17.919999999999998" r="5.56" style="stroke: none; stroke-width: 1; stroke-dasharray: none; stroke-linecap: butt; stroke-linejoin: miter; stroke-miterlimit: 10; fill: rgb(240,240,240); fill-rule: nonzero; opacity: 1;" transform="  matrix(1 0 0 1 0 0) "/>
	<path d="M 70.435 20.968 c -3.071 0 -5.56 -2.489 -5.56 -5.56 c 0 -0.886 0.213 -1.721 0.582 -2.465 c -1.832 0.909 -3.095 2.794 -3.095 4.978 c 0 3.071 2.489 5.56 5.56 5.56 c 2.184 0 4.069 -1.263 4.978 -3.095 C 72.156 20.755 71.322 20.968 70.435 20.968 z" style="stroke: none; stroke-width: 1; stroke-dasharray: none; stroke-linecap: butt; stroke-linejoin: miter; stroke-miterlimit: 10; fill: rgb(255,255,255); fill-rule: nonzero; opacity: 1;" transform=" matrix(1 0 0 1 0 0) " stroke-linecap="round" />
</g>
</svg>