<svg xmlns="http://www.w3.org/2000/svg" xmlns:xlink="http://www.w3.org/1999/xlink" version="1.1" width="256" height="256" viewBox="0 0 256 256" xml:space="preserve">

<defs>
</defs>
<g style="stroke: none; stroke-width: 0; stroke-dasharray: none; stroke-linecap: butt; stroke-linejoin: miter; stroke-miterlimit: 10; fill: rgb(255,255,255); fill-rule: nonzero; opacity: 1;" transform="translate(0 0) scale(2.81 2.81)" >
	<rect x="0" y="0" rx="0" ry="0" width="90" height="90" style="stroke: none; stroke-width: 1; stroke-dasharray: none; stroke-linecap: butt; stroke-linejoin: miter; stroke-miterlimit: 10; fill: rgb(255,255,255); fill-rule: nonzero; opacity: 1;" transform=" matrix(1 0 0 1 0 0) "/>
</g>
<g style="stroke: none; stroke-width: 0; stroke-dasharray: none; stroke-linecap: butt; stroke-linejoin: miter; stroke-miterlimit: 10; fill: none; fill-rule: nonzero; opacity: 1;" transform="translate(37.2648196873549 37.2648196873549) scale(2.02 2.02)" >
	<path d="M 80.035 79.04 H 9.964 C 4.47 79.04 0 74.569 0 69.075 v -48.15 c 0 -5.494 4.47 -9.964 9.964 -9.964 h 70.071 c 5.494 0 9.965 4.47 9.965 9.964 v 48.15 C 90 74.569 85.529 79.04 80.035 79.04 z M 9.964 18.96 C 8.881 18.96 8 19.842 8 20.925 v 48.15 c 0 1.083 0.881 1.965 1.964 1.965 h 70.071 c 1.083 0 1.965 -0.882 1.965 -1.965 v -48.15 c 0 -1.083 -0.882 -1.964 -1.965 -1.964 H 9.964 z" style="stroke: none; stroke-width: 1; stroke-dasharray: none; stroke-linecap: butt; stroke-linejoin: miter; stroke-miterlimit: 10; fill: rgb(0,171,255); fill-rule: nonzero; opacity: 1;" transform=" matrix(1 0 0 1 0 0) " stroke-linecap="round" />
	<path d="M 45 56.25 C 45 56.25 45 56.25 45 56.25 c -5.581 0 -10.936 -2.365 -14.694 -6.489 L 2.713 19.486 l 5.913 -5.389 l 27.593 30.274 c 2.279 2.5 5.397 3.878 8.781 3.878 c 3.384 0 6.502 -1.377 8.783 -3.878 l 27.592 -30.273 l 5.912 5.389 L 59.694 49.761 C 55.936 53.885 50.579 56.25 45 56.25 z" style="stroke: none; stroke-width: 1; stroke-dasharray: none; stroke-linecap: butt; stroke-linejoin: miter; stroke-miterlimit: 10; fill: rgb(0,171,255); fill-rule: nonzero; opacity: 1;" transform=" matrix(1 0 0 1 0 0) " stroke-linecap="round" />
	<rect x="0.14" y="55.8" rx="0" ry="0" width="38.05" height="8" style="stroke: none; stroke-width: 1; stroke-dasharray: none; stroke-linecap: butt; stroke-linejoin: miter; stroke-miterlimit: 10; fill: rgb(0,171,255); fill-rule: nonzero; opacity: 1;" transform=" matrix(0.7053 -0.7089 0.7089 0.7053 -36.7482 31.2077) "/>
	<rect x="66.84" y="40.78" rx="0" ry="0" width="8" height="38.05" style="stroke: none; stroke-width: 1; stroke-dasharray: none; stroke-linecap: butt; stroke-linejoin: miter; stroke-miterlimit: 10; fill: rgb(0,171,255); fill-rule: nonzero; opacity: 1;" transform=" matrix(0.709 -0.7053 0.7053 0.709 -21.5569 67.3659) "/>
</g>
</svg>